<?xml version="1.0" encoding="UTF-8" standalone="no"?>
<svg width="232px" height="242px" viewBox="0 0 232 242" version="1.1" xmlns="http://www.w3.org/2000/svg" xmlns:xlink="http://www.w3.org/1999/xlink">
    <!-- Generator: Sketch 41.2 (35397) - http://www.bohemiancoding.com/sketch -->
    <title>Group 6</title>
    <desc>Created with Sketch.</desc>
    <defs>
        <polygon id="path-1" points="22.633536 0.651702881 0.14674865 0.651702881 0.14674865 37.6096554 22.633536 37.6096554 22.633536 0.651702881"></polygon>
    </defs>
    <g id="Page-1" stroke="none" stroke-width="1" fill="none" fill-rule="evenodd">
        <g id="Icons" transform="translate(-36.000000, -622.000000)">
            <g id="Group-6" transform="translate(19.000000, 616.000000)">
                <path d="M233.899113,131.926616 C233.899113,188.058947 188.369519,233.561954 132.208152,233.561954 C76.0451009,233.561954 30.5155064,188.058947 30.5155064,131.926616 C30.5155064,75.7942851 76.0451009,30.2912785 132.208152,30.2912785 C188.369519,30.2912785 233.899113,75.7942851 233.899113,131.926616" id="Fill-1" fill="#FEFEFE" transform="translate(132.207310, 131.926616) rotate(10.000000) translate(-132.207310, -131.926616) "></path>
                <path d="M233.899282,131.926616 C233.899282,188.058947 188.369687,233.561954 132.208321,233.561954 C76.0452694,233.561954 30.5156749,188.058947 30.5156749,131.926616 C30.5156749,75.7942851 76.0452694,30.2912785 132.208321,30.2912785 C188.369687,30.2912785 233.899282,75.7942851 233.899282,131.926616 Z" id="Stroke-3" stroke="#98A3AE" stroke-width="7.92792" stroke-dasharray="1.582412993907929,6.328066349029542" transform="translate(132.207478, 131.926616) rotate(10.000000) translate(-132.207478, -131.926616) "></path>
                <path d="M247.005342,132.408068 C247.005342,195.335286 195.964412,246.348297 133.002755,246.348297 C70.0410983,246.348297 19.0001685,195.335286 19.0001685,132.408068 C19.0001685,69.4808503 70.0410983,18.4678389 133.002755,18.4678389 C195.964412,18.4678389 247.005342,69.4808503 247.005342,132.408068 Z" id="Stroke-5" stroke="#FED741" stroke-width="3.171168" transform="translate(133.002755, 132.408068) rotate(10.000000) translate(-133.002755, -132.408068) "></path>
                <g id="Group-9" transform="translate(131.624605, 24.708301) scale(-1, 1) rotate(180.000000) translate(-131.624605, -24.708301) translate(120.124605, 5.708301)">
                    <mask id="mask-2" fill="white">
                        <use xlink:href="#path-1"></use>
                    </mask>
                    <g id="Clip-8"></g>
                    <polygon id="Fill-7" fill="#313236" mask="url(#mask-2)" points="11.6395088 0.651197685 0.14674865 37.6096554 11.3901423 30.1175983 22.633536 37.6096554"></polygon>
                </g>
            </g>
        </g>
    </g>
</svg>