<svg xmlns="http://www.w3.org/2000/svg"  viewBox="0 0 100 100" width="50px" height="50px"><path fill="#78a0cf" d="M13 27A2 2 0 1 0 13 31A2 2 0 1 0 13 27Z"/><path fill="#f1bc19" d="M77 12A1 1 0 1 0 77 14A1 1 0 1 0 77 12Z"/><path fill="#cee1f4" d="M50 13A37 37 0 1 0 50 87A37 37 0 1 0 50 13Z"/><path fill="#f1bc19" d="M83 11A4 4 0 1 0 83 19A4 4 0 1 0 83 11Z"/><path fill="#78a0cf" d="M87 22A2 2 0 1 0 87 26A2 2 0 1 0 87 22Z"/><path fill="#fbcd59" d="M81 74A2 2 0 1 0 81 78 2 2 0 1 0 81 74zM15 59A4 4 0 1 0 15 67 4 4 0 1 0 15 59z"/><path fill="#78a0cf" d="M25 85A2 2 0 1 0 25 89A2 2 0 1 0 25 85Z"/><path fill="#fff" d="M18.5 51A2.5 2.5 0 1 0 18.5 56A2.5 2.5 0 1 0 18.5 51Z"/><path fill="#f1bc19" d="M21 66A1 1 0 1 0 21 68A1 1 0 1 0 21 66Z"/><path fill="#fff" d="M80 33A1 1 0 1 0 80 35A1 1 0 1 0 80 33Z"/><path fill="#f1bc19" d="M58.134 31.738999999999997A13.536 13.536 0 1 0 58.134 58.811A13.536 13.536 0 1 0 58.134 31.738999999999997Z"/><path fill="#472b29" d="M71.396,48.503c-0.033,0-0.067-0.003-0.101-0.01c-0.271-0.056-0.445-0.32-0.389-0.591 c0.176-0.856,0.265-1.74,0.265-2.627c0-7.188-5.848-13.036-13.036-13.036c-4.022,0-7.758,1.814-10.248,4.979 c-0.17,0.216-0.485,0.254-0.702,0.083c-0.217-0.171-0.254-0.484-0.084-0.702c2.682-3.406,6.703-5.36,11.034-5.36 c7.739,0,14.036,6.297,14.036,14.036c0,0.954-0.096,1.905-0.285,2.828C71.836,48.34,71.628,48.503,71.396,48.503z"/><g><path fill="#f1bc19" d="M61.641,36.625c1.125,0.475,2.138,1.163,2.989,2.013"/><path fill="#472b29" d="M64.63,39.138c-0.128,0-0.256-0.049-0.353-0.146c-0.819-0.817-1.771-1.459-2.83-1.905 c-0.254-0.107-0.374-0.401-0.266-0.655c0.107-0.255,0.401-0.372,0.655-0.267c1.178,0.497,2.237,1.21,3.147,2.12 c0.196,0.194,0.196,0.512,0.001,0.707C64.886,39.089,64.758,39.138,64.63,39.138z"/></g><g><path fill="#f1bc19" d="M50.587,39.479c1.722-2.188,4.395-3.592,7.395-3.592"/><path fill="#472b29" d="M50.587,39.979c-0.108,0-0.217-0.035-0.309-0.107c-0.217-0.171-0.254-0.485-0.084-0.702 c1.893-2.403,4.731-3.782,7.788-3.782c0.276,0,0.5,0.224,0.5,0.5s-0.224,0.5-0.5,0.5c-2.749,0-5.3,1.239-7.002,3.401 C50.882,39.913,50.735,39.979,50.587,39.979z"/></g><g><path fill="#48bed8" d="M30.064,65.3c-3.316,0-6.014-2.88-6.014-6.42c0-3.541,2.698-6.421,6.014-6.421 c0.432,0,0.876,0.054,1.32,0.161l0.838,0.202l0.026-0.862c0.193-6.472,5.105-11.541,11.185-11.541 c4.273,0,8.115,2.539,10.025,6.627l0.473,1.01l0.704-0.864c1.522-1.868,3.719-2.939,6.029-2.939c4.125,0,7.62,3.431,7.958,7.812 l0.065,0.854l0.824-0.233c0.524-0.149,1.047-0.225,1.553-0.225c1.599,0,3.104,0.662,4.238,1.865 c1.145,1.215,1.775,2.832,1.775,4.556c0,3.54-2.698,6.42-6.015,6.42H30.064z"/><path fill="#472b29" d="M43.433,41.118c3.998,0,7.597,2.385,9.391,6.224l0.945,2.021l1.409-1.729 c1.388-1.704,3.388-2.682,5.486-2.682c3.761,0,6.95,3.147,7.26,7.166l0.132,1.708l1.648-0.469c0.46-0.131,0.918-0.197,1.361-0.197 c1.404,0,2.729,0.584,3.729,1.646c1.022,1.084,1.585,2.531,1.584,4.075c0,3.154-2.384,5.72-5.315,5.72H30.065 c-2.93,0-5.315-2.566-5.315-5.72c0-3.154,2.384-5.72,5.315-5.72c0.377,0,0.766,0.048,1.157,0.142l1.675,0.403l0.051-1.722 C33.13,45.89,37.735,41.118,43.433,41.118 M43.433,39.718c-6.446,0-11.682,5.438-11.884,12.221 c-0.479-0.115-0.974-0.18-1.484-0.18c-3.709,0-6.715,3.188-6.715,7.12c0,3.933,3.006,7.12,6.715,7.12c0.431,0,40.567,0,40.999,0 c3.709,0,6.715-3.188,6.715-7.12c0.001-3.933-3.005-7.12-6.713-7.12c-0.605,0-1.187,0.092-1.745,0.251 c-0.365-4.734-4.096-8.458-8.656-8.458c-2.628,0-4.978,1.242-6.572,3.197C52.147,42.586,48.111,39.718,43.433,39.718 L43.433,39.718z"/></g><g><path fill="#472b29" d="M60.5,62h-3c-0.276,0-0.5-0.224-0.5-0.5s0.224-0.5,0.5-0.5h3c0.276,0,0.5,0.224,0.5,0.5 S60.776,62,60.5,62z"/></g><g><path fill="#472b29" d="M53.5,62h-23c-0.276,0-0.5-0.224-0.5-0.5s0.224-0.5,0.5-0.5h23c0.276,0,0.5,0.224,0.5,0.5 S53.776,62,53.5,62z"/></g><g><path fill="#472b29" d="M67.5,62h-4c-0.276,0-0.5-0.224-0.5-0.5s0.224-0.5,0.5-0.5h4c0.276,0,0.5,0.224,0.5,0.5 S67.776,62,67.5,62z"/></g><g><path fill="#472b29" d="M58.5,29c-0.276,0-0.5-0.224-0.5-0.5v-6c0-0.276,0.224-0.5,0.5-0.5s0.5,0.224,0.5,0.5v6 C59,28.776,58.776,29,58.5,29z"/></g><g><path fill="#472b29" d="M81.5,48h-6c-0.276,0-0.5-0.224-0.5-0.5s0.224-0.5,0.5-0.5h6c0.276,0,0.5,0.224,0.5,0.5 S81.776,48,81.5,48z"/></g><g><path fill="#472b29" d="M70.093,34.685c-0.128,0-0.256-0.049-0.354-0.146c-0.195-0.195-0.195-0.512,0-0.707l4.284-4.284 c0.195-0.195,0.512-0.195,0.707,0s0.195,0.512,0,0.707l-4.284,4.284C70.349,34.636,70.221,34.685,70.093,34.685z"/></g><g><path fill="#472b29" d="M47.722,33.473c-0.128,0-0.256-0.049-0.354-0.146l-4.284-4.283c-0.195-0.195-0.195-0.512,0-0.707 s0.512-0.195,0.707,0l4.284,4.283c0.195,0.195,0.195,0.512,0,0.707C47.978,33.424,47.85,33.473,47.722,33.473z"/></g></svg>